<svg width="1184" height="268" viewBox="0 0 1184 268" fill="none" xmlns="http://www.w3.org/2000/svg">
<rect x="40" y="19" width="248" height="248" rx="53" fill="#EDEFF2" stroke="white" stroke-width="2"/>
<g filter="url(#filter0_d)">
<ellipse cx="140" cy="124.275" rx="65" ry="65.7895" fill="url(#paint0_linear)"/>
</g>
<g filter="url(#filter1_d)">
<ellipse cx="180" cy="160.712" rx="65" ry="65.7895" fill="#243EE6"/>
</g>
<rect width="46.2296" height="21.992" rx="10.996" transform="matrix(0.764593 0.644513 -0.63539 0.772191 223.975 73.8813)" fill="#243EE6"/>
<rect width="46.3022" height="21.6838" rx="10.8419" transform="matrix(-0.674285 0.738471 -0.730303 -0.683123 139.768 94.7441)" fill="#243EE6"/>
<rect width="7.06035" height="34.4331" transform="matrix(0.714621 -0.699512 0.690839 0.723009 144 165.816)" fill="white"/>
<rect width="7.06035" height="34.4331" transform="matrix(0.714621 -0.699512 0.690839 0.723009 144 165.816)" fill="white"/>
<rect width="7.06035" height="34.4331" transform="matrix(0.714621 -0.699512 0.690839 0.723009 144 165.816)" fill="white"/>
<rect width="7.06035" height="34.4331" transform="matrix(0.714621 -0.699512 0.690839 0.723009 144 165.816)" fill="white"/>
<rect width="7.06362" height="65.4752" transform="matrix(0.687267 0.726405 -0.718064 0.695978 210.695 139.526)" fill="white"/>
<rect width="7.06362" height="65.4752" transform="matrix(0.687267 0.726405 -0.718064 0.695978 210.695 139.526)" fill="white"/>
<rect width="7.06362" height="65.4752" transform="matrix(0.687267 0.726405 -0.718064 0.695978 210.695 139.526)" fill="white"/>
<rect width="7.06362" height="65.4752" transform="matrix(0.687267 0.726405 -0.718064 0.695978 210.695 139.526)" fill="white"/>
<path d="M413.672 182.633H367.441L358.652 209H330.615L378.252 81.0312H402.686L450.586 209H422.549L413.672 182.633ZM374.561 161.275H406.553L390.469 113.375L374.561 161.275ZM487.676 209H462.188V74H487.676V209ZM504.727 160.572C504.727 151.139 506.543 142.73 510.176 135.348C513.809 127.965 519.023 122.252 525.82 118.209C532.676 114.166 540.615 112.145 549.639 112.145C562.471 112.145 572.93 116.07 581.016 123.922C589.16 131.773 593.701 142.438 594.639 155.914L594.814 162.418C594.814 177.008 590.742 188.727 582.598 197.574C574.453 206.363 563.525 210.758 549.814 210.758C536.104 210.758 525.146 206.363 516.943 197.574C508.799 188.785 504.727 176.832 504.727 161.715V160.572ZM530.127 162.418C530.127 171.441 531.826 178.355 535.225 183.16C538.623 187.906 543.486 190.279 549.814 190.279C555.967 190.279 560.771 187.936 564.229 183.248C567.686 178.502 569.414 170.943 569.414 160.572C569.414 151.725 567.686 144.869 564.229 140.006C560.771 135.143 555.908 132.711 549.639 132.711C543.428 132.711 538.623 135.143 535.225 140.006C531.826 144.811 530.127 152.281 530.127 162.418ZM712.588 166.373C711.592 180.143 706.494 190.982 697.295 198.893C688.154 206.803 676.084 210.758 661.084 210.758C644.678 210.758 631.758 205.25 622.324 194.234C612.949 183.16 608.262 167.984 608.262 148.707V140.885C608.262 128.58 610.43 117.74 614.766 108.365C619.102 98.9902 625.283 91.8125 633.311 86.832C641.396 81.793 650.771 79.2734 661.436 79.2734C676.201 79.2734 688.096 83.2285 697.119 91.1387C706.143 99.0488 711.357 110.152 712.764 124.449H686.396C685.752 116.188 683.438 110.211 679.453 106.52C675.527 102.77 669.521 100.895 661.436 100.895C652.646 100.895 646.055 104.059 641.66 110.387C637.324 116.656 635.098 126.412 634.98 139.654V149.322C634.98 163.15 637.061 173.258 641.221 179.645C645.439 186.031 652.061 189.225 661.084 189.225C669.229 189.225 675.293 187.379 679.277 183.688C683.32 179.938 685.635 174.166 686.221 166.373H712.588ZM724.277 160.572C724.277 151.139 726.094 142.73 729.727 135.348C733.359 127.965 738.574 122.252 745.371 118.209C752.227 114.166 760.166 112.145 769.189 112.145C782.021 112.145 792.48 116.07 800.566 123.922C808.711 131.773 813.252 142.438 814.189 155.914L814.365 162.418C814.365 177.008 810.293 188.727 802.148 197.574C794.004 206.363 783.076 210.758 769.365 210.758C755.654 210.758 744.697 206.363 736.494 197.574C728.35 188.785 724.277 176.832 724.277 161.715V160.572ZM749.678 162.418C749.678 171.441 751.377 178.355 754.775 183.16C758.174 187.906 763.037 190.279 769.365 190.279C775.518 190.279 780.322 187.936 783.779 183.248C787.236 178.502 788.965 170.943 788.965 160.572C788.965 151.725 787.236 144.869 783.779 140.006C780.322 135.143 775.459 132.711 769.189 132.711C762.979 132.711 758.174 135.143 754.775 140.006C751.377 144.811 749.678 152.281 749.678 162.418ZM853.389 113.902L854.18 124.889C860.977 116.393 870.088 112.145 881.514 112.145C891.592 112.145 899.092 115.104 904.014 121.021C908.936 126.939 911.455 135.787 911.572 147.564V209H886.172V148.18C886.172 142.789 885 138.893 882.656 136.49C880.312 134.029 876.416 132.799 870.967 132.799C863.818 132.799 858.457 135.846 854.883 141.939V209H829.482V113.902H853.389ZM982.412 182.721C982.412 179.615 980.859 177.184 977.754 175.426C974.707 173.609 969.785 171.998 962.988 170.592C940.371 165.846 929.062 156.236 929.062 141.764C929.062 133.326 932.549 126.295 939.521 120.67C946.553 114.986 955.723 112.145 967.031 112.145C979.102 112.145 988.74 114.986 995.947 120.67C1003.21 126.354 1006.85 133.736 1006.85 142.818H981.445C981.445 139.186 980.273 136.197 977.93 133.854C975.586 131.451 971.924 130.25 966.943 130.25C962.666 130.25 959.355 131.217 957.012 133.15C954.668 135.084 953.496 137.545 953.496 140.533C953.496 143.346 954.814 145.631 957.451 147.389C960.146 149.088 964.658 150.582 970.986 151.871C977.314 153.102 982.646 154.508 986.982 156.09C1000.4 161.012 1007.11 169.537 1007.11 181.666C1007.11 190.338 1003.39 197.369 995.947 202.76C988.506 208.092 978.896 210.758 967.119 210.758C959.15 210.758 952.061 209.352 945.85 206.539C939.697 203.668 934.863 199.771 931.348 194.85C927.832 189.869 926.074 184.508 926.074 178.766H950.156C950.391 183.277 952.061 186.734 955.166 189.137C958.271 191.539 962.432 192.74 967.646 192.74C972.51 192.74 976.172 191.832 978.633 190.016C981.152 188.141 982.412 185.709 982.412 182.721ZM1080.5 199.332C1074.23 206.949 1065.56 210.758 1054.48 210.758C1044.29 210.758 1036.49 207.828 1031.1 201.969C1025.77 196.109 1023.05 187.525 1022.93 176.217V113.902H1048.33V175.338C1048.33 185.24 1052.84 190.191 1061.87 190.191C1070.48 190.191 1076.4 187.203 1079.62 181.227V113.902H1105.11V209H1081.2L1080.5 199.332ZM1151.07 209H1125.59V74H1151.07V209Z" fill="#515151"/>
<path d="M413.672 182.633H367.441L358.652 209H330.615L378.252 81.0312H402.686L450.586 209H422.549L413.672 182.633ZM374.561 161.275H406.553L390.469 113.375L374.561 161.275ZM487.676 209H462.188V74H487.676V209ZM504.727 160.572C504.727 151.139 506.543 142.73 510.176 135.348C513.809 127.965 519.023 122.252 525.82 118.209C532.676 114.166 540.615 112.145 549.639 112.145C562.471 112.145 572.93 116.07 581.016 123.922C589.16 131.773 593.701 142.438 594.639 155.914L594.814 162.418C594.814 177.008 590.742 188.727 582.598 197.574C574.453 206.363 563.525 210.758 549.814 210.758C536.104 210.758 525.146 206.363 516.943 197.574C508.799 188.785 504.727 176.832 504.727 161.715V160.572ZM530.127 162.418C530.127 171.441 531.826 178.355 535.225 183.16C538.623 187.906 543.486 190.279 549.814 190.279C555.967 190.279 560.771 187.936 564.229 183.248C567.686 178.502 569.414 170.943 569.414 160.572C569.414 151.725 567.686 144.869 564.229 140.006C560.771 135.143 555.908 132.711 549.639 132.711C543.428 132.711 538.623 135.143 535.225 140.006C531.826 144.811 530.127 152.281 530.127 162.418ZM712.588 166.373C711.592 180.143 706.494 190.982 697.295 198.893C688.154 206.803 676.084 210.758 661.084 210.758C644.678 210.758 631.758 205.25 622.324 194.234C612.949 183.16 608.262 167.984 608.262 148.707V140.885C608.262 128.58 610.43 117.74 614.766 108.365C619.102 98.9902 625.283 91.8125 633.311 86.832C641.396 81.793 650.771 79.2734 661.436 79.2734C676.201 79.2734 688.096 83.2285 697.119 91.1387C706.143 99.0488 711.357 110.152 712.764 124.449H686.396C685.752 116.188 683.438 110.211 679.453 106.52C675.527 102.77 669.521 100.895 661.436 100.895C652.646 100.895 646.055 104.059 641.66 110.387C637.324 116.656 635.098 126.412 634.98 139.654V149.322C634.98 163.15 637.061 173.258 641.221 179.645C645.439 186.031 652.061 189.225 661.084 189.225C669.229 189.225 675.293 187.379 679.277 183.688C683.32 179.938 685.635 174.166 686.221 166.373H712.588ZM724.277 160.572C724.277 151.139 726.094 142.73 729.727 135.348C733.359 127.965 738.574 122.252 745.371 118.209C752.227 114.166 760.166 112.145 769.189 112.145C782.021 112.145 792.48 116.07 800.566 123.922C808.711 131.773 813.252 142.438 814.189 155.914L814.365 162.418C814.365 177.008 810.293 188.727 802.148 197.574C794.004 206.363 783.076 210.758 769.365 210.758C755.654 210.758 744.697 206.363 736.494 197.574C728.35 188.785 724.277 176.832 724.277 161.715V160.572ZM749.678 162.418C749.678 171.441 751.377 178.355 754.775 183.16C758.174 187.906 763.037 190.279 769.365 190.279C775.518 190.279 780.322 187.936 783.779 183.248C787.236 178.502 788.965 170.943 788.965 160.572C788.965 151.725 787.236 144.869 783.779 140.006C780.322 135.143 775.459 132.711 769.189 132.711C762.979 132.711 758.174 135.143 754.775 140.006C751.377 144.811 749.678 152.281 749.678 162.418ZM853.389 113.902L854.18 124.889C860.977 116.393 870.088 112.145 881.514 112.145C891.592 112.145 899.092 115.104 904.014 121.021C908.936 126.939 911.455 135.787 911.572 147.564V209H886.172V148.18C886.172 142.789 885 138.893 882.656 136.49C880.312 134.029 876.416 132.799 870.967 132.799C863.818 132.799 858.457 135.846 854.883 141.939V209H829.482V113.902H853.389ZM982.412 182.721C982.412 179.615 980.859 177.184 977.754 175.426C974.707 173.609 969.785 171.998 962.988 170.592C940.371 165.846 929.062 156.236 929.062 141.764C929.062 133.326 932.549 126.295 939.521 120.67C946.553 114.986 955.723 112.145 967.031 112.145C979.102 112.145 988.74 114.986 995.947 120.67C1003.21 126.354 1006.85 133.736 1006.85 142.818H981.445C981.445 139.186 980.273 136.197 977.93 133.854C975.586 131.451 971.924 130.25 966.943 130.25C962.666 130.25 959.355 131.217 957.012 133.15C954.668 135.084 953.496 137.545 953.496 140.533C953.496 143.346 954.814 145.631 957.451 147.389C960.146 149.088 964.658 150.582 970.986 151.871C977.314 153.102 982.646 154.508 986.982 156.09C1000.4 161.012 1007.11 169.537 1007.11 181.666C1007.11 190.338 1003.39 197.369 995.947 202.76C988.506 208.092 978.896 210.758 967.119 210.758C959.15 210.758 952.061 209.352 945.85 206.539C939.697 203.668 934.863 199.771 931.348 194.85C927.832 189.869 926.074 184.508 926.074 178.766H950.156C950.391 183.277 952.061 186.734 955.166 189.137C958.271 191.539 962.432 192.74 967.646 192.74C972.51 192.74 976.172 191.832 978.633 190.016C981.152 188.141 982.412 185.709 982.412 182.721ZM1080.5 199.332C1074.23 206.949 1065.56 210.758 1054.48 210.758C1044.29 210.758 1036.49 207.828 1031.1 201.969C1025.77 196.109 1023.05 187.525 1022.93 176.217V113.902H1048.33V175.338C1048.33 185.24 1052.84 190.191 1061.87 190.191C1070.48 190.191 1076.4 187.203 1079.62 181.227V113.902H1105.11V209H1081.2L1080.5 199.332ZM1151.07 209H1125.59V74H1151.07V209Z" fill="url(#paint1_linear)"/>
<defs>
<filter id="filter0_d" x="0" y="0.48584" width="244" height="245.579" filterUnits="userSpaceOnUse" color-interpolation-filters="sRGB">
<feFlood flood-opacity="0" result="BackgroundImageFix"/>
<feColorMatrix in="SourceAlpha" type="matrix" values="0 0 0 0 0 0 0 0 0 0 0 0 0 0 0 0 0 0 127 0"/>
<feOffset dx="-18" dy="-1"/>
<feGaussianBlur stdDeviation="28.5"/>
<feColorMatrix type="matrix" values="0 0 0 0 1 0 0 0 0 1 0 0 0 0 1 0 0 0 1 0"/>
<feBlend mode="normal" in2="BackgroundImageFix" result="effect1_dropShadow"/>
<feBlend mode="normal" in="SourceGraphic" in2="effect1_dropShadow" result="shape"/>
</filter>
<filter id="filter1_d" x="85" y="72.9229" width="190" height="191.579" filterUnits="userSpaceOnUse" color-interpolation-filters="sRGB">
<feFlood flood-opacity="0" result="BackgroundImageFix"/>
<feColorMatrix in="SourceAlpha" type="matrix" values="0 0 0 0 0 0 0 0 0 0 0 0 0 0 0 0 0 0 127 0"/>
<feOffset dy="8"/>
<feGaussianBlur stdDeviation="15"/>
<feColorMatrix type="matrix" values="0 0 0 0 1 0 0 0 0 1 0 0 0 0 1 0 0 0 1 0"/>
<feBlend mode="normal" in2="BackgroundImageFix" result="effect1_dropShadow"/>
<feBlend mode="normal" in="SourceGraphic" in2="effect1_dropShadow" result="shape"/>
</filter>
<linearGradient id="paint0_linear" x1="198.5" y1="180.449" x2="100.451" y2="93.0641" gradientUnits="userSpaceOnUse">
<stop stop-color="#99A7FF"/>
<stop offset="1" stop-color="#0371FF"/>
</linearGradient>
<linearGradient id="paint1_linear" x1="330" y1="173.389" x2="1126.81" y2="145.549" gradientUnits="userSpaceOnUse">
<stop stop-color="#197DEE"/>
<stop offset="1" stop-color="#80CDFF"/>
</linearGradient>
</defs>
</svg>
